<svg width="792" height="597" viewBox="0 0 792 597" fill="none" xmlns="http://www.w3.org/2000/svg">
    <path d="M383.913 590.669L15.394 372.864C3.65286 366.279 -6.41097 355.445 5.03292 348.35L374.889 135.112C380.431 131.671 388.86 129.419 394.507 132.69L781.327 357.314C793.069 364.133 795.171 383.167 783.451 389.986L432.491 590.436C425.112 594.696 416.751 596.958 408.233 596.999C399.714 597.04 391.332 594.859 383.913 590.669Z" fill="#FB9C4D"/>
    <path d="M313.827 397.74L408.414 361.903L486.738 397.761L398.52 451.4C378.584 438.42 333.148 411.548 313.827 397.74Z" fill="url(#paint0_linear)"/>
    <path d="M210.131 447.64L300.387 403.029L368.604 444.475L280.387 492.08C260.471 479.186 229.452 461.448 210.131 447.64Z" fill="url(#paint1_linear)"/>
    <path d="M447.14 347.373L383.763 371.165C383.763 371.165 381.109 372.885 382.808 377.007C383.785 379.365 389.029 382.764 389.029 382.764L443.743 414.628C446.734 415.962 449.914 416.822 453.17 417.177C457.544 417.432 464.868 413.885 464.868 413.885L515.825 384.357L447.14 347.373Z" fill="#34323D"/>
    <path d="M446.249 344.42L385.697 369.189C385.697 369.189 381.45 371.505 382.576 374.649C383.786 376.986 385.673 378.903 387.99 380.151L442.852 411.697C445.843 413.031 449.024 413.891 452.279 414.246C456.653 414.501 463.978 410.953 463.978 410.953L512.216 383.507L446.249 344.42Z" fill="#537FF2"/>
    <path opacity="0.45" d="M446.249 344.42L385.697 369.189C385.697 369.189 381.45 371.505 382.576 374.649C383.786 376.986 385.673 378.903 387.99 380.151L442.852 411.697C445.843 413.031 449.024 413.891 452.279 414.246C456.653 414.501 463.978 410.953 463.978 410.953L512.216 383.507L446.249 344.42Z" fill="#06577A"/>
    <path d="M589.457 427.799C590.612 428.291 591.894 428.397 593.114 428.103C594.334 427.808 595.427 427.128 596.23 426.163C596.23 426.163 597.419 425.93 597.419 420.725V179.17C597.354 177.08 596.85 175.028 595.939 173.147C595.028 171.265 593.731 169.597 592.132 168.251C586.215 164.105 580.046 160.331 573.661 156.95L305.419 2.02402L302.405 0.494518C301.389 -0.0102163 300.226 -0.133444 299.127 0.147248C298.028 0.427941 297.067 1.09391 296.417 2.02402C295.631 3.36243 295.18 4.87092 295.101 6.42133C294.995 8.94926 295.101 33.3575 295.101 33.3575V250.674C295.1 252.76 295.534 254.824 296.375 256.733C297.216 258.642 298.445 260.355 299.984 261.763L589.457 427.799Z" fill="#537FF2"/>
    <path d="M592.494 391.197V182.803C592.494 175.877 591.539 172.011 586.125 169.122L303.212 5.12553C302.655 4.71129 301.994 4.4604 301.303 4.40098C300.611 4.34157 299.917 4.47597 299.298 4.78914C298.678 5.1023 298.158 5.58186 297.796 6.17406C297.433 6.76626 297.243 7.44771 297.246 8.14205L297.947 222.442L592.494 391.197Z" fill="white"/>
    <path d="M625.296 388.86L685.254 361.988L718.163 386.417L667.78 415.648C655.678 407.809 636.952 397.124 625.296 388.86Z" fill="url(#paint2_linear)"/>
    <path d="M573.024 184.757V256.707L520.985 226.521L521.346 154.719L573.024 184.757Z" fill="#FB9C4D"/>
    <path d="M508.055 148.835V220.785L456.016 190.578L456.377 118.797L508.055 148.835Z" fill="#06577A"/>
    <path d="M441.898 111.022V182.972L389.859 152.765L390.199 80.9845L441.898 111.022Z" fill="#F78B72"/>
    <path d="M372.852 71.7226V143.673L320.813 113.486L321.153 41.6849L372.852 71.7226Z" fill="#22B573"/>
    <path d="M574.636 273.85L457.629 207.359C456.902 206.97 456.052 206.878 455.258 207.102C454.465 207.327 453.789 207.851 453.374 208.564C452.959 209.277 452.836 210.123 453.031 210.924C453.227 211.726 453.726 212.42 454.423 212.861L571.431 279.352C572.158 279.742 573.007 279.834 573.801 279.609C574.594 279.385 575.27 278.861 575.685 278.148C576.101 277.435 576.223 276.589 576.028 275.787C575.832 274.986 575.333 274.291 574.636 273.85Z" fill="#FBB03B"/>
    <path d="M572.345 293.67L455.338 227.179C454.611 226.79 453.761 226.698 452.967 226.922C452.174 227.147 451.498 227.671 451.083 228.384C450.667 229.096 450.545 229.943 450.74 230.744C450.936 231.546 451.435 232.24 452.132 232.681L569.139 299.172C569.867 299.562 570.716 299.654 571.51 299.429C572.303 299.205 572.979 298.681 573.394 297.968C573.81 297.255 573.932 296.409 573.737 295.607C573.541 294.806 573.042 294.111 572.345 293.67Z" fill="#FBB03B"/>
    <path d="M570.983 312.598L453.975 246.107C453.248 245.717 452.399 245.625 451.605 245.85C450.811 246.074 450.136 246.598 449.721 247.311C449.305 248.024 449.182 248.87 449.378 249.672C449.574 250.473 450.072 251.168 450.769 251.609L567.777 318.1C568.504 318.489 569.354 318.581 570.147 318.357C570.941 318.132 571.616 317.608 572.032 316.895C572.447 316.183 572.57 315.336 572.374 314.535C572.179 313.733 571.68 313.039 570.983 312.598Z" fill="#FBB03B"/>
    <path d="M414.499 237.128C425.411 234.219 431.035 219.766 427.062 204.847C423.089 189.928 411.023 180.192 400.111 183.101C389.2 186.01 383.575 200.462 387.548 215.381C391.522 230.301 403.588 240.037 414.499 237.128Z" fill="#06577A"/>
    <path d="M343.91 203.489C354.822 200.58 360.446 186.128 356.473 171.209C352.5 156.29 340.434 146.554 329.522 149.462C318.611 152.371 312.986 166.824 316.96 181.743C320.933 196.662 332.999 206.398 343.91 203.489Z" fill="#FB9C4D"/>
    <path d="M308.561 409.084C308.561 409.084 321.406 403.369 324.506 403.136C327.606 402.902 332.765 403.964 328.264 409.636C328.264 409.636 314.76 418.473 312.977 418.749C311.193 419.026 306.862 417.666 306.756 418.133C306.65 418.601 306.246 422.021 306.246 422.021C306.246 422.021 294.951 426.269 294.463 418.771C294.463 417.793 296.098 403.752 296.098 403.752" fill="#E55600"/>
    <path d="M293.827 375.944C296.056 361.414 300.196 347.33 301.852 332.63C302.914 323.389 303.678 314.085 304.825 304.844C305.971 295.603 309.411 286.66 311.619 277.504C311.676 277.291 311.662 277.065 311.577 276.862C311.493 276.658 311.343 276.488 311.152 276.378C311.152 276.06 311.343 275.741 311.449 275.422C312.596 274.339 313.763 273.298 314.889 272.321L330.685 282.942C330.685 282.942 330.685 292.608 330.091 306.65C328.265 314.828 326.863 322.115 324.783 329.868C325.003 330.117 325.162 330.413 325.246 330.734C325.331 331.055 325.34 331.392 325.271 331.716C320.133 356.125 316.391 380.807 314.061 405.642C314.031 406.053 313.883 406.447 313.634 406.775C313.386 407.103 313.047 407.351 312.659 407.49L312.214 411.314C298.477 416.625 295.462 407.384 295.462 407.384C295.462 407.384 294.846 399.503 294.06 388.584C293.784 384.335 293.721 380.151 293.827 375.944Z" fill="#34323D"/>
    <path d="M391.197 224.503L391.558 224.63C391.387 224.41 391.272 224.152 391.22 223.878C391.169 223.604 391.183 223.321 391.262 223.054C391.34 222.786 391.481 222.541 391.673 222.339C391.865 222.137 392.102 221.983 392.364 221.89C393.129 221.635 393.914 221.422 394.7 221.168C394.761 221.075 394.833 220.99 394.912 220.913C395.166 220.685 395.444 220.486 395.74 220.318C395.879 220.107 396.068 219.934 396.291 219.815C396.513 219.697 396.762 219.636 397.014 219.638H397.609C398.267 219.489 398.946 219.362 399.732 219.213L402.131 218.682C402.203 218.463 402.319 218.261 402.471 218.087C405.778 214.111 408.794 209.901 411.494 205.49C412.471 204.003 415.231 204.895 414.552 206.765C413.924 208.873 413.106 210.921 412.11 212.883C415.656 209.271 417.588 208.464 420.815 204.555C422.195 202.898 424.53 205.278 423.172 206.913C422.344 207.912 419.074 210.44 418.246 211.417C419.838 209.951 423.872 206.935 425.486 205.49C427.099 204.046 429.456 206.425 427.843 207.848C425.266 210.142 422.726 212.472 420.22 214.837C422.492 213.435 424.722 211.969 426.887 210.397C428.628 209.123 430.284 212.033 428.564 213.286C426.08 215.092 423.511 216.77 420.879 218.342C422.539 217.998 424.172 217.529 425.762 216.94C427.758 216.154 428.628 219.383 426.654 220.169C425.019 220.806 423.32 221.337 421.643 221.869L419.116 222.676C418.125 222.942 417.18 223.357 416.314 223.908C413.028 225.933 409.446 227.431 405.698 228.348L404.997 228.773C404.777 228.897 404.528 228.963 404.275 228.963C404.022 228.963 403.774 228.897 403.554 228.773C399.124 229.653 394.538 229.286 390.305 227.71C388.33 226.988 389.074 223.759 391.197 224.503Z" fill="#FCBF81"/>
    <path d="M342.15 197.439C342.767 196.753 343.434 196.114 344.146 195.527C344.132 195.576 344.132 195.627 344.146 195.676C344.132 195.742 344.139 195.812 344.167 195.874C344.195 195.936 344.242 195.987 344.302 196.02C344.361 196.053 344.429 196.067 344.497 196.058C344.564 196.05 344.627 196.02 344.677 195.973L345.993 194.975C345.916 195.135 345.865 195.308 345.844 195.485C345.799 195.829 345.886 196.178 346.087 196.461C346.287 196.745 346.587 196.942 346.927 197.014C347.122 197.072 347.328 197.085 347.529 197.053C347.73 197.02 347.921 196.943 348.088 196.827C348.255 196.71 348.394 196.558 348.494 196.381C348.595 196.204 348.654 196.006 348.668 195.803L349.22 195.485C349.198 195.625 349.198 195.769 349.22 195.909C349.217 196.112 349.265 196.313 349.36 196.492C349.454 196.672 349.593 196.825 349.762 196.937C349.931 197.049 350.126 197.117 350.328 197.134C350.53 197.151 350.733 197.117 350.919 197.035L351.492 196.78C351.589 196.879 351.704 196.956 351.832 197.007C351.96 197.058 352.097 197.082 352.235 197.078C353.483 197.096 354.731 197.04 355.972 196.908C355.908 196.849 355.859 196.776 355.83 196.694C355.8 196.612 355.792 196.525 355.804 196.439C355.817 196.353 355.85 196.271 355.902 196.201C355.953 196.131 356.021 196.075 356.099 196.037C357.713 195.469 359.366 195.022 361.046 194.699H361.237L361.365 194.592C362.063 193.652 362.388 192.487 362.278 191.321C362.755 191.032 363.161 190.64 363.466 190.173C363.771 189.706 363.967 189.176 364.04 188.623C363.933 188.573 363.844 188.492 363.785 188.389C363.644 188.146 363.543 187.88 363.488 187.603C363.353 187.207 363.288 186.79 363.297 186.371C363.301 186.271 363.336 186.174 363.396 186.095C363.457 186.015 363.541 185.956 363.636 185.925C363.36 185.054 363 184.183 362.66 183.397C364.747 181.64 366.269 179.304 367.034 176.685C367.11 176.44 367.106 176.177 367.021 175.936C366.936 175.694 366.776 175.486 366.564 175.342C366.351 175.199 366.098 175.128 365.843 175.141C365.587 175.153 365.342 175.247 365.144 175.41C364.344 176.07 363.585 176.78 362.872 177.534C362.706 177.573 362.552 177.653 362.426 177.768C358.63 181.523 354.633 185.069 350.452 188.389C349.751 188.942 341.492 194.635 341.959 195.039C341.789 195.123 333.487 204.046 342.15 197.439ZM346.587 195.315C346.601 195.359 346.624 195.399 346.655 195.434C346.686 195.468 346.724 195.495 346.766 195.513C346.809 195.532 346.854 195.54 346.901 195.539C346.947 195.538 346.992 195.526 347.033 195.506C347.134 195.654 347.267 195.778 347.421 195.87C347.575 195.962 347.747 196.019 347.925 196.037C347.843 196.226 347.69 196.374 347.499 196.45C347.308 196.526 347.095 196.522 346.906 196.441C346.717 196.359 346.569 196.206 346.493 196.014C346.417 195.823 346.421 195.61 346.502 195.421L346.587 195.315Z" fill="#FCBF81"/>
    <path d="M343.616 195.208C345.167 194.705 346.608 193.912 347.863 192.872C348.109 192.651 348.397 192.481 348.71 192.373C349.023 192.265 349.354 192.22 349.685 192.242C350.015 192.264 350.338 192.351 350.634 192.5C350.93 192.648 351.193 192.854 351.408 193.105C351.711 192.522 351.973 191.919 352.194 191.3C352.452 190.691 352.932 190.203 353.536 189.934C354.14 189.665 354.824 189.635 355.449 189.851C356.074 190.067 356.594 190.511 356.904 191.096C357.214 191.68 357.291 192.36 357.12 192.999C356.351 195.528 354.815 197.755 352.725 199.372C350.57 200.728 348.19 201.685 345.697 202.197C345.264 202.271 344.819 202.237 344.402 202.098C343.985 201.958 343.609 201.719 343.307 201.399C343.005 201.08 342.786 200.692 342.669 200.268C342.553 199.844 342.543 199.397 342.64 198.969L342.491 198.714C342.184 198.098 342.13 197.387 342.34 196.732C342.55 196.077 343.008 195.53 343.616 195.208Z" fill="#FCBF81"/>
    <path d="M350.854 199.797C353.377 199.189 355.59 197.678 357.075 195.548C357.082 195.588 357.098 195.626 357.12 195.659C357.143 195.692 357.172 195.721 357.205 195.743C357.239 195.764 357.277 195.779 357.317 195.786C357.356 195.793 357.397 195.791 357.436 195.782L359.856 195.166C360.354 195.071 360.834 194.899 361.279 194.656C362.319 193.998 362.022 192.723 362.022 191.661C362.042 191.599 362.042 191.532 362.022 191.47L362.447 191.109C363.181 190.579 363.736 189.838 364.039 188.984C364.209 188.092 363.614 187.242 363.487 186.371C363.693 185.968 363.766 185.51 363.693 185.062C363.62 184.615 363.407 184.203 363.084 183.886C362.213 183.036 361.343 183.631 360.515 184.205C358.731 185.423 356.99 186.704 355.292 188.05C354.952 188.305 355.292 188.793 355.716 188.538C356.636 187.816 357.57 187.108 358.519 186.414C359.392 185.563 360.386 184.847 361.47 184.29C364.103 183.801 362.595 186.669 361.98 187.327C361.364 187.986 361.194 188.05 360.791 188.39L358.094 190.726C358.06 190.755 358.033 190.791 358.015 190.831C357.996 190.871 357.987 190.916 357.988 190.96C357.837 192.923 357.057 194.785 355.764 196.27C354.471 197.755 352.735 198.783 350.812 199.202C350.281 199.351 350.408 199.988 350.854 199.797ZM358.858 191.3C358.809 191.265 358.749 191.246 358.689 191.246C358.628 191.246 358.569 191.265 358.519 191.3C358.519 191.3 358.519 191.151 358.519 191.087C360.165 189.922 361.662 188.559 362.977 187.03C362.977 187.285 363.147 187.519 363.232 187.795C363.353 188.17 363.359 188.573 363.249 188.951C363.14 189.33 362.919 189.667 362.616 189.919C361.831 190.79 359.878 192.723 358.795 191.47L358.858 191.3ZM357.33 194.975C357.895 194.005 358.277 192.939 358.455 191.831C359.326 192.723 360.451 192.362 361.406 191.831C361.449 192.283 361.449 192.738 361.406 193.19C361.406 193.87 360.875 194.146 360.26 194.316C359.347 194.677 358.264 194.89 357.224 195.145L357.33 194.975Z" fill="#34323D"/>
    <path d="M313.125 213.308C314.144 211.714 347.924 191.257 349.983 188.708C352.174 191.502 353.472 194.892 353.706 198.436C353.941 201.979 353.102 205.511 351.3 208.57C351.3 208.57 332.361 230.769 322.509 232.745" fill="#5F66FC"/>
    <path d="M336.672 430.221L344.316 432.961C344.545 433.654 344.949 434.275 345.488 434.766C346.027 435.258 346.684 435.602 347.394 435.765C347.663 436.088 348.041 436.3 348.456 436.36C351.551 436.582 354.654 436.08 357.522 434.894C361.174 433.747 375.441 428.288 371.492 438.527C368.881 440.354 365.972 441.947 363.318 443.561C361.811 444.475 360.324 445.388 358.775 446.238C357.956 446.792 357.053 447.209 356.099 447.47C353.976 447.789 349.072 446.238 348.944 446.769C348.817 447.3 348.35 451.23 348.35 451.23C348.35 451.23 335.356 456.201 334.783 447.491C334.719 446.344 336.672 430.221 336.672 430.221Z" fill="#E55600"/>
    <path d="M325.928 352.067C324.336 326.384 323.465 300.532 318.03 275.295C317.796 268.731 313.55 272.916 313.784 270.324C316.098 249.187 346.863 274.339 346.863 274.339C348.115 275.359 348.264 281.838 348.519 283.303C349.934 291.418 351.123 299.561 352.086 307.733C357.181 348.987 355.292 390.05 353.211 431.431C346.672 438.123 342.404 440.12 331.873 435.807C329.75 408.723 327.775 381.638 326.034 354.51L325.928 352.067Z" fill="#34323D"/>
    <path d="M308.393 255.029C307.207 242.319 306.93 229.541 307.565 216.792C307.799 213.456 308.712 205.257 312.045 203.323C319.37 199.075 329.561 202.877 335.739 207.423C343.977 213.499 348.733 270.005 348.754 283.898C337.417 288.381 322.597 290.08 311.005 285.279C309.985 284.854 309.752 270.983 309.603 269.262C309.306 264.503 308.881 259.745 308.393 255.029Z" fill="#8B93FC"/>
    <path d="M331.98 236.505C332.328 240.503 333.896 244.298 336.47 247.375C339.045 250.453 342.502 252.665 346.375 253.712C346.375 254.498 346.63 259.384 346.693 260.085C337.436 257.96 330.621 246.255 329.708 236.42C329.517 235.018 331.746 235.039 331.98 236.505Z" fill="#34323D"/>
    <path d="M332.236 179.042C332.958 179.382 336.482 195.208 332.363 203.642C328.244 212.075 314.826 200.052 312.32 192.574C309.815 185.097 318.669 172.648 332.236 179.042Z" fill="#FCBF81"/>
    <path d="M331.746 181.039C331.479 182.398 330.823 183.649 329.858 184.641C328.893 185.633 327.661 186.323 326.311 186.626C321.788 187.391 318.094 187.773 317.945 189.77C317.797 191.767 325.631 190.939 324.803 195.421C324.237 198.434 323.265 201.357 321.916 204.109C321.045 206.234 309.644 197.099 307.627 184.842C305.61 172.585 316.65 171.544 317.181 171.544C319.162 169.616 321.806 168.522 324.57 168.485C329.92 168.336 330.939 170.609 330.939 170.609C332.239 170.131 333.66 170.09 334.986 170.493C336.311 170.895 337.47 171.719 338.285 172.84C342.298 177.492 339.793 184.12 333.933 185.904L331.746 181.039Z" fill="#E55600"/>
    <path d="M335.335 213.541C335.335 213.541 364.316 223.356 373.7 221.529C382.695 219.206 391.525 216.289 400.134 212.798C407.671 217.046 409.964 226.5 407.395 234.614C396.376 238.693 363.636 250.186 352.023 246.999C337.967 243.154 322.298 237.44 322.298 237.44C322.298 237.44 307.096 227.413 335.335 213.541Z" fill="#8B93FC"/>
    <path d="M569.372 332.439V349.837C569.37 350.462 569.206 351.075 568.896 351.618C568.587 352.161 568.142 352.614 567.605 352.933C567.068 353.251 566.457 353.426 565.833 353.438C565.208 353.45 564.591 353.3 564.042 353.002L547.97 344.25C547.404 343.938 546.932 343.48 546.603 342.923C546.274 342.366 546.101 341.731 546.102 341.085V323.283C546.105 322.653 546.272 322.034 546.588 321.489C546.904 320.943 547.358 320.49 547.903 320.174C548.448 319.859 549.067 319.691 549.697 319.689C550.327 319.686 550.947 319.849 551.494 320.16L567.567 329.401C568.103 329.71 568.55 330.152 568.866 330.684C569.182 331.216 569.356 331.82 569.372 332.439Z" fill="#EF7F6C"/>
    <path d="M536.887 314.51V331.908C536.885 332.533 536.722 333.146 536.412 333.689C536.102 334.231 535.657 334.684 535.12 335.003C534.583 335.322 533.973 335.496 533.348 335.509C532.724 335.521 532.107 335.371 531.558 335.073L515.486 326.236C514.919 325.924 514.447 325.466 514.119 324.909C513.79 324.352 513.617 323.717 513.617 323.071V305.269C513.62 304.638 513.788 304.02 514.104 303.474C514.42 302.929 514.873 302.476 515.419 302.16C515.964 301.844 516.582 301.677 517.212 301.674C517.843 301.672 518.462 301.835 519.01 302.146L535.082 311.387C535.63 311.703 536.086 312.159 536.402 312.707C536.719 313.255 536.886 313.876 536.887 314.51Z" fill="#06577A"/>
    <path d="M501.219 294.435V311.833C501.218 312.458 501.054 313.071 500.744 313.614C500.434 314.157 499.989 314.61 499.452 314.929C498.915 315.248 498.305 315.422 497.68 315.434C497.056 315.446 496.439 315.296 495.89 314.998L479.818 306.161C479.251 305.849 478.779 305.391 478.451 304.834C478.122 304.277 477.949 303.642 477.949 302.996V285.194C477.952 284.564 478.12 283.945 478.436 283.4C478.752 282.854 479.205 282.401 479.751 282.085C480.296 281.77 480.914 281.602 481.544 281.6C482.175 281.597 482.794 281.76 483.342 282.071L499.414 291.312C499.962 291.629 500.418 292.084 500.734 292.632C501.051 293.18 501.218 293.802 501.219 294.435Z" fill="#22B573"/>
    <path d="M731.583 338.833C731.583 338.833 736.445 380.597 714.342 388.69C692.24 396.784 680.372 375.732 680.096 338.833" fill="#06577A"/>
    <path d="M705.829 353.724C720.04 353.724 731.561 347.057 731.561 338.833C731.561 330.609 720.04 323.942 705.829 323.942C691.617 323.942 680.096 330.609 680.096 338.833C680.096 347.057 691.617 353.724 705.829 353.724Z" fill="#F2696A"/>
    <path d="M699.246 305.715C699.246 305.715 709.352 291.121 704.936 281.031C704.936 281.031 701.305 274.551 696.146 273.511C696.146 273.511 696.655 287.34 691.517 285.577C686.379 283.813 691.517 271.089 691.517 271.089C691.517 271.089 686.103 263.76 680.179 263.994C674.256 264.227 680.18 276.931 676.061 274.828C671.942 272.725 675.806 261.912 671.177 260.616C666.941 259.621 662.642 258.911 658.311 258.492C658.311 258.492 653.937 271.11 658.311 272.916C662.685 274.721 669.118 275.337 666.039 278.12C662.961 280.903 654.192 277.695 654.192 277.695C654.192 277.695 653.64 284.791 656.612 287.871C659.585 290.951 677.101 284.153 674.001 290.25C670.901 296.347 659.33 293.288 659.33 293.288C659.33 293.288 665.254 301.785 672.196 305.609C679.139 309.433 699.246 305.715 699.246 305.715Z" fill="#8CCC00"/>
    <path d="M696.932 342.232C696.932 342.232 704.235 335.031 702.792 328.828C702.059 326.632 700.549 324.781 698.545 323.623C698.545 323.623 697.356 331.525 694.617 329.996C691.878 328.466 696.167 321.775 696.167 321.775C696.167 321.775 693.874 317.038 690.498 316.528C687.122 316.018 689.118 323.878 686.995 322.242C684.872 320.606 688.227 314.871 685.742 313.745C683.438 312.737 681.069 311.886 678.651 311.196C678.651 311.196 674.829 317.887 677.122 319.396C679.415 320.904 683.004 321.924 680.944 323.177C678.885 324.43 674.256 321.669 674.256 321.669C674.256 321.669 673.194 325.641 674.553 327.702C675.912 329.762 686.57 327.702 684.171 330.909C681.772 334.117 675.509 331.079 675.509 331.079C676.959 334.222 678.99 337.062 681.496 339.449C685.063 342.296 696.932 342.232 696.932 342.232Z" fill="#8CCC00"/>
    <path d="M723.725 326.661C723.725 326.661 741.454 327.34 747.59 318.163C747.59 318.163 751.093 311.621 749.204 306.713C749.204 306.713 737.823 314.573 736.464 309.284C735.106 303.994 748.673 301.509 748.673 301.509C748.673 301.509 751.942 293.012 748.673 288.147C745.403 283.282 737.76 295.093 737.335 290.484C736.91 285.874 748.099 283.325 746.677 278.715C745.22 274.61 743.489 270.607 741.496 266.734C741.496 266.734 728.503 269.814 729.331 274.488C730.159 279.161 733.11 284.918 729.097 283.792C725.084 282.666 723.089 273.574 723.089 273.574C723.089 273.574 716.719 276.931 715.827 281.094C714.936 285.258 729.968 296.389 723.173 297.048C716.379 297.706 712.727 286.299 712.727 286.299C712.727 286.299 708.778 295.837 709.245 303.782C709.713 311.727 723.725 326.661 723.725 326.661Z" fill="#8CCC00"/>
    <path d="M662.155 264.163L667.824 269.007C667.633 266.989 667.399 264.992 667.081 262.995C666.911 261.933 668.524 261.487 668.694 262.549C669.119 265.226 669.437 267.909 669.65 270.6C674.618 274.955 679.544 279.522 684.151 284.366C684.542 280.967 684.642 277.542 684.448 274.126C684.448 273.043 686.062 273.043 686.125 274.126C686.343 278.077 686.179 282.04 685.637 285.959C688.566 289.124 691.316 292.45 693.875 295.922C696.751 291.94 698.709 287.369 699.607 282.539C699.799 281.477 701.412 281.923 701.221 282.985C700.261 288.125 698.141 292.979 695.021 297.175C694.972 297.232 694.915 297.282 694.852 297.324C702.615 307.687 707.097 320.14 707.718 333.076C707.718 334.159 706.083 334.159 706.041 333.076C705.442 320.6 701.148 308.584 693.705 298.556C686.944 300.386 679.931 301.103 672.94 300.68C671.879 300.68 671.858 298.938 672.94 299.002C679.57 299.432 686.226 298.816 692.665 297.175C689.11 292.377 685.207 287.847 680.987 283.622H680.839C676.932 283.962 673.025 284.323 669.098 284.451C666.637 284.804 664.128 284.511 661.815 283.601C660.86 283.112 661.709 281.668 662.664 282.156C665.361 283.516 669.14 282.794 672.049 282.624C674.533 282.475 677.017 282.263 679.501 282.05C673.535 276.123 667.123 270.621 660.945 265.396C660.138 264.652 661.327 263.526 662.155 264.163Z" fill="#06577A"/>
    <path d="M714.065 296.793C714.006 296.579 714.035 296.35 714.144 296.157C714.254 295.963 714.435 295.822 714.649 295.762C714.863 295.703 715.092 295.732 715.285 295.841C715.478 295.951 715.62 296.133 715.679 296.347C717.491 302.53 721.261 307.957 726.422 311.812C728.319 306.543 730.053 301.211 731.624 295.816C727.581 291.786 724.256 287.095 721.794 281.944C721.327 280.967 722.77 280.117 723.238 281.094C725.517 285.793 728.535 290.097 732.176 293.84C733.917 287.679 735.467 281.434 736.762 275.146C736.974 274.084 738.588 274.53 738.376 275.592C736.592 284.203 734.391 292.7 731.773 301.084C734.934 300.464 738.007 299.458 740.924 298.089C741.9 297.621 742.749 299.066 741.773 299.533C738.404 301.136 734.832 302.272 731.157 302.911C729.395 308.434 727.399 313.872 725.297 319.268C730.309 319.11 735.247 318.022 739.862 316.06C740.839 315.635 741.688 317.08 740.711 317.505C735.628 319.689 730.17 320.865 724.639 320.967C721.949 327.68 718.991 334.294 715.764 340.808C715.276 341.764 713.832 340.936 714.32 339.959C718.638 331.305 722.472 322.419 725.807 313.341C720.177 309.271 716.049 303.453 714.065 296.793Z" fill="#06577A"/>
    <path d="M683.725 318.482L688.333 326.214C688.899 325.457 689.39 324.646 689.798 323.793C690.265 322.815 691.708 323.665 691.241 324.642C690.715 325.732 690.067 326.758 689.309 327.701L694.299 336.092C694.857 335.555 695.217 334.843 695.318 334.074C695.445 333.012 697.122 333.012 696.995 334.074C696.843 335.416 696.182 336.648 695.148 337.516L701.39 348.01C701.503 348.201 701.535 348.43 701.479 348.645C701.423 348.86 701.284 349.044 701.093 349.157C700.901 349.27 700.673 349.302 700.458 349.246C700.243 349.19 700.059 349.051 699.946 348.859L691.708 335.03C690.325 335.052 688.947 334.843 687.632 334.414C686.613 334.074 687.059 332.46 688.078 332.8C688.919 333.064 689.788 333.228 690.668 333.288L682.324 319.268C682.275 319.09 682.288 318.9 682.359 318.73C682.431 318.56 682.557 318.418 682.718 318.328C682.879 318.237 683.066 318.204 683.248 318.231C683.431 318.259 683.599 318.347 683.725 318.482Z" fill="#06577A"/>
    <path d="M12.3164 368.425L102.572 323.814L170.79 365.259L82.5721 412.95C62.6568 399.97 31.6372 382.233 12.3164 368.425Z" fill="url(#paint3_linear)"/>
    <path d="M175.289 250.653V355.615C175.289 355.615 74.46 361.223 74.46 355.615V250.653" fill="#537FF2"/>
    <path d="M124.864 377.771C152.713 377.771 175.289 367.452 175.289 354.723C175.289 341.993 152.713 331.674 124.864 331.674C97.0146 331.674 74.4385 341.993 74.4385 354.723C74.4385 367.452 97.0146 377.771 124.864 377.771Z" fill="#537FF2"/>
    <path d="M124.864 273.702C152.713 273.702 175.289 263.382 175.289 250.653C175.289 237.923 152.713 227.604 124.864 227.604C97.0146 227.604 74.4385 237.923 74.4385 250.653C74.4385 263.382 97.0146 273.702 124.864 273.702Z" fill="#3129A3"/>
    <path d="M156.287 268.582L155.948 268.773C154.015 269.453 152.062 270.069 150.066 270.558L163.782 155.611C163.782 155.611 166.648 154.039 170.81 156.907L156.733 268.37L156.287 268.582Z" fill="#F78B72"/>
    <path d="M140.661 272.13L136.415 164.236C136.415 164.236 139.005 162.218 143.549 164.406L147.031 271.237C144.926 271.656 142.8 271.953 140.661 272.13Z" fill="#F78B72"/>
    <path d="M124.864 273.702L110.936 161.22L82.8682 176.09L94.2271 270.579C104.168 273.461 114.547 274.519 124.864 273.702Z" fill="#FCB749"/>
    <defs>
        <linearGradient id="paint0_linear" x1="371.599" y1="425.25" x2="419.309" y2="379.539" gradientUnits="userSpaceOnUse">
            <stop stop-color="#FB9C4D"/>
            <stop offset="0.98" stop-color="#E16C3F"/>
        </linearGradient>
        <linearGradient id="paint1_linear" x1="21524.8" y1="20878.5" x2="24823.9" y2="16428.1" gradientUnits="userSpaceOnUse">
            <stop stop-color="#FB9C4D"/>
            <stop offset="0.98" stop-color="#E16C3F"/>
        </linearGradient>
        <linearGradient id="paint2_linear" x1="30241.7" y1="11046.2" x2="31419.5" y2="9500.68" gradientUnits="userSpaceOnUse">
            <stop stop-color="#FB9C4D"/>
            <stop offset="0.98" stop-color="#E16C3F"/>
        </linearGradient>
        <linearGradient id="paint3_linear" x1="6146.82" y1="17565.4" x2="7561.02" y2="15888.6" gradientUnits="userSpaceOnUse">
            <stop stop-color="#FB9C4D"/>
            <stop offset="0.98" stop-color="#E16C3F"/>
        </linearGradient>
    </defs>
</svg>
