<svg width="22" height="16" viewBox="0 0 22 16" fill="none" xmlns="http://www.w3.org/2000/svg">
    <path fill-rule="evenodd" clip-rule="evenodd" d="M11 0C7.51702 0 4.94003 1.577 3.19003 3.262C1.9642 4.4522 0.949433 5.84196 0.189025 7.372C0.0939558 7.56752 0.0445557 7.78209 0.0445557 7.9995C0.0445557 8.21691 0.0939558 8.43148 0.189025 8.627C0.949052 10.1573 1.96348 11.5474 3.18903 12.738C4.94003 14.423 7.51802 16 11 16C14.483 16 17.06 14.423 18.81 12.738C20.0359 11.5478 21.0507 10.1581 21.811 8.628C21.9061 8.43248 21.9555 8.21791 21.9555 8.0005C21.9555 7.78309 21.9061 7.56852 21.811 7.373C21.051 5.84266 20.0366 4.45255 18.811 3.262C17.06 1.577 14.483 0 11 0ZM11 4C9.93916 4 8.92174 4.42143 8.1716 5.17157C7.42145 5.92172 7.00003 6.93913 7.00003 8C7.00003 9.06087 7.42145 10.0783 8.1716 10.8284C8.92174 11.5786 9.93916 12 11 12C12.0609 12 13.0783 11.5786 13.8285 10.8284C14.5786 10.0783 15 9.06087 15 8C15 6.93913 14.5786 5.92172 13.8285 5.17157C13.0783 4.42143 12.0609 4 11 4V4ZM11 10C11.5305 10 12.0392 9.78929 12.4142 9.41421C12.7893 9.03914 13 8.53043 13 8C13 7.46957 12.7893 6.96086 12.4142 6.58579C12.0392 6.21071 11.5305 6 11 6C10.4696 6 9.96088 6.21071 9.58581 6.58579C9.21074 6.96086 9.00002 7.46957 9.00002 8C9.00002 8.53043 9.21074 9.03914 9.58581 9.41421C9.96088 9.78929 10.4696 10 11 10Z" fill="black"/>
</svg>
