<svg width="17" height="17" viewBox="0 0 17 17" fill="none" xmlns="http://www.w3.org/2000/svg">
    <path opacity="0.4" d="M11.9641 0H14.8422C16.0341 0 17 0.973974 17 2.17597V5.07835C17 6.28034 16.0341 7.25431 14.8422 7.25431H11.9641C10.7722 7.25431 9.8064 6.28034 9.8064 5.07835V2.17597C9.8064 0.973974 10.7722 0 11.9641 0Z" fill="#FEFEFE"/>
    <path fill-rule="evenodd" clip-rule="evenodd" d="M2.15775 0H5.03582C6.22775 0 7.19356 0.973974 7.19356 2.17597V5.07835C7.19356 6.28034 6.22775 7.25431 5.03582 7.25431H2.15775C0.965817 7.25431 0 6.28034 0 5.07835V2.17597C0 0.973974 0.965817 0 2.15775 0ZM2.15775 9.74569H5.03582C6.22775 9.74569 7.19356 10.7197 7.19356 11.9217V14.824C7.19356 16.0252 6.22775 17 5.03582 17H2.15775C0.965817 17 0 16.0252 0 14.824V11.9217C0 10.7197 0.965817 9.74569 2.15775 9.74569ZM14.8422 9.74569H11.9641C10.7722 9.74569 9.80634 10.7197 9.80634 11.9217V14.824C9.80634 16.0252 10.7722 17 11.9641 17H14.8422C16.0341 17 16.9999 16.0252 16.9999 14.824V11.9217C16.9999 10.7197 16.0341 9.74569 14.8422 9.74569Z" fill="#FEFEFE"/>
</svg>
