<svg width="37" height="37" viewBox="0 0 37 37" fill="none" xmlns="http://www.w3.org/2000/svg">
    <path d="M34.6861 32.5598C35.8003 32.5598 36.7065 33.4778 36.7065 34.6066C36.7065 35.7374 35.8003 36.6533 34.6861 36.6533H23.2659C22.1517 36.6533 21.2455 35.7374 21.2455 34.6066C21.2455 33.4778 22.1517 32.5598 23.2659 32.5598H34.6861ZM26.7663 2.05145L29.7163 4.39489C30.926 5.34086 31.7325 6.58783 32.0084 7.8993C32.3267 9.34191 31.9872 10.7587 31.0321 11.9842L13.4593 34.7091C12.6529 35.7411 11.4644 36.3216 10.191 36.3431L3.18733 36.4291C2.80532 36.4291 2.48697 36.1711 2.40208 35.8056L0.81034 28.9043C0.534439 27.6358 0.81034 26.3243 1.61682 25.3139L14.0748 9.18927C14.287 8.93127 14.6691 8.89042 14.9237 9.08177L20.1659 13.2527C20.5054 13.5322 20.9723 13.6827 21.4605 13.6182C22.5004 13.4892 23.2008 12.5432 23.0947 11.5327C23.031 11.0167 22.7763 10.5867 22.4367 10.2642C22.3306 10.1782 17.3432 6.17934 17.3432 6.17934C17.0248 5.92135 16.9612 5.44836 17.2158 5.12802L19.1896 2.56743C21.0148 0.223994 24.1983 0.00899911 26.7663 2.05145Z" fill="#200E32"/>
</svg>
