<svg width="18" height="18" viewBox="0 0 18 18" fill="none" xmlns="http://www.w3.org/2000/svg">
    <path opacity="0.4" d="M1.04688 12.1667C1.04688 12.1667 1.16972 13.6917 1.19827 14.1726C1.23633 14.8175 1.48202 15.5379 1.89207 16.038C2.47081 16.747 3.1525 16.997 4.06258 16.9988C5.1327 17.0006 12.9142 17.0006 13.9843 16.9988C14.8944 16.997 15.5761 16.747 16.1548 16.038C16.5649 15.5379 16.8105 14.8175 16.8495 14.1726C16.8772 13.6917 17 12.1667 17 12.1667" stroke="white" stroke-width="1.5" stroke-linecap="round" stroke-linejoin="round"/>
    <path d="M5.97083 3.26291V2.93738C5.97083 1.86691 6.82553 1 7.88094 1H10.1146C11.1692 1 12.0247 1.86691 12.0247 2.93738L12.0256 3.26291" stroke="white" stroke-width="1.5" stroke-linecap="round" stroke-linejoin="round"/>
    <path d="M8.99785 13.2206V12.0852" stroke="white" stroke-width="1.5" stroke-linecap="round" stroke-linejoin="round"/>
    <path fill-rule="evenodd" clip-rule="evenodd" d="M1 5.94749V8.98957C2.65924 10.0995 4.64722 10.8769 6.82898 11.1849C7.09023 10.2189 7.94927 9.51077 8.99343 9.51077C10.0212 9.51077 10.8975 10.2189 11.1414 11.1937C13.3319 10.8857 15.3276 10.1083 16.9955 8.98957V5.94749C16.9955 4.46111 15.8164 3.26428 14.3509 3.26428H3.65323C2.18777 3.26428 1 4.46111 1 5.94749Z" stroke="white" stroke-width="1.5" stroke-linecap="round" stroke-linejoin="round"/>
</svg>
