<svg width="21" height="21" viewBox="0 0 21 21" fill="none" xmlns="http://www.w3.org/2000/svg">
    <path fill-rule="evenodd" clip-rule="evenodd" d="M9.51864 0C11.9515 0 13.9371 1.92249 14.0486 4.33575L14.0535 4.54993V5.5071C14.0535 5.93205 13.7102 6.27654 13.2866 6.27654C12.8984 6.27654 12.5775 5.98707 12.5267 5.61151L12.5197 5.5071V4.54993C12.5197 2.94652 11.2702 1.63558 9.69496 1.54398L9.51864 1.53887H4.53385C2.93662 1.53887 1.63016 2.79267 1.53887 4.37303L1.53378 4.54993V15.9683C1.53378 17.5716 2.7832 18.8827 4.35763 18.9743L4.53385 18.9794H9.52886C11.1213 18.9794 12.4237 17.7302 12.5147 16.1558L12.5197 15.9796V15.0122C12.5197 14.5872 12.8631 14.2428 13.2866 14.2428C13.6749 14.2428 13.9957 14.5322 14.0465 14.9078L14.0535 15.0122V15.9796C14.0535 18.4123 12.1447 20.3983 9.74804 20.513L9.52886 20.5183H4.53385C2.10185 20.5183 0.116404 18.5956 0.00493588 16.1825L0 15.9683V4.54993C0 2.10922 1.91595 0.116813 4.32046 0.0049532L4.53385 0H9.51864ZM20.915 9.90636C20.9694 10.012 21 10.1318 21 10.2589C21 10.4799 20.9071 10.6792 20.7584 10.8195L17.7802 13.7954C17.4801 14.0952 16.9945 14.0942 16.6956 13.7931C16.4239 13.5194 16.4001 13.0919 16.6234 12.7911L16.6979 12.705L18.3747 11.0283H7.92099C7.49745 11.0283 7.1541 10.6838 7.1541 10.2589C7.1541 9.86934 7.44261 9.54741 7.81693 9.49646L7.92099 9.48944H18.3767L16.698 7.81336C16.4251 7.5408 16.3994 7.1134 16.6215 6.81168L16.6955 6.72522C16.9672 6.45144 17.3932 6.42566 17.6939 6.64849L17.7801 6.72279L20.774 9.71333C20.8323 9.77153 20.8793 9.83678 20.915 9.90636Z" fill="white"/>
</svg>
