<svg width="22" height="20" viewBox="0 0 22 20" fill="none" xmlns="http://www.w3.org/2000/svg">
    <path fill-rule="evenodd" clip-rule="evenodd" d="M1.29301 0.293031C1.48054 0.105559 1.73485 0.000244141 2.00001 0.000244141C2.26518 0.000244141 2.51948 0.105559 2.70701 0.293031L5.76101 3.34703C7.36305 2.45647 9.1671 1.99263 11 2.00003C14.483 2.00003 17.06 3.57703 18.81 5.26203C20.0358 6.45226 21.0506 7.84201 21.811 9.37203C22.004 9.77203 22.003 10.231 21.811 10.628C21.471 11.332 20.237 13.66 17.929 15.515L20.707 18.293C20.8892 18.4816 20.99 18.7342 20.9877 18.9964C20.9854 19.2586 20.8802 19.5094 20.6948 19.6948C20.5094 19.8803 20.2586 19.9854 19.9964 19.9877C19.7342 19.99 19.4816 19.8892 19.293 19.707L1.29301 1.70703C1.10554 1.5195 1.00023 1.26519 1.00023 1.00003C1.00023 0.734866 1.10554 0.480558 1.29301 0.293031V0.293031ZM14.446 12.032C14.897 11.2681 15.0812 10.3758 14.9697 9.49571C14.8581 8.61559 14.4571 7.79752 13.8298 7.17021C13.2025 6.54289 12.3845 6.14192 11.5043 6.03038C10.6242 5.91883 9.73199 6.10304 8.96801 6.55403L10.482 8.06803C10.8212 7.97701 11.1784 7.97692 11.5176 8.06775C11.8569 8.15858 12.1662 8.33715 12.4146 8.58548C12.6629 8.83381 12.8415 9.14316 12.9323 9.48241C13.0231 9.82165 13.023 10.1788 12.932 10.518L14.446 12.032ZM4.08601 6.58803L7.03101 9.49803C6.95371 10.1076 7.01788 10.7268 7.21856 11.3076C7.41923 11.8884 7.75102 12.4151 8.18817 12.847C8.62532 13.2788 9.15608 13.6041 9.73927 13.7977C10.3225 13.9912 10.9424 14.0478 11.551 13.963L13.037 15.431C13.853 16.237 13.511 17.796 12.182 17.938C11.799 17.978 11.405 18 11 18C7.51701 18 4.94001 16.423 3.19001 14.738C1.9642 13.5478 0.949437 12.1581 0.189012 10.628C0.0938278 10.432 0.0443726 10.2169 0.0443726 9.99903C0.0443726 9.78112 0.0938278 9.56605 0.189012 9.37003C0.406012 8.92503 0.954012 7.88103 1.87401 6.71703C2.00401 6.55334 2.16708 6.41893 2.35257 6.32256C2.53805 6.22619 2.74178 6.17003 2.95045 6.15776C3.15912 6.14549 3.36803 6.17739 3.56353 6.25136C3.75903 6.32532 3.93673 6.43971 4.08501 6.58703L4.08601 6.58803Z" fill="black"/>
</svg>
