<svg width="21" height="22" viewBox="0 0 21 22" fill="none" xmlns="http://www.w3.org/2000/svg">
    <path fill-rule="evenodd" clip-rule="evenodd" d="M19.7235 6.63057L19.0586 5.49288C18.4962 4.53023 17.2496 4.19814 16.272 4.7505V4.7505C15.8067 5.02081 15.2514 5.0975 14.7287 4.96366C14.2059 4.82982 13.7586 4.49644 13.4854 4.03704C13.3097 3.74503 13.2152 3.41244 13.2116 3.0729V3.0729C13.2275 2.52852 13.0192 2.001 12.6343 1.6105C12.2493 1.22 11.7204 0.999776 11.1681 1H9.82861C9.28753 0.999994 8.76875 1.2126 8.38707 1.59078C8.00539 1.96895 7.79227 2.48151 7.79487 3.01505V3.01505C7.77883 4.11662 6.8686 5.00129 5.75136 5.00117C5.40702 4.99765 5.06973 4.90452 4.7736 4.73121V4.73121C3.79601 4.17886 2.54948 4.51095 1.98699 5.4736L1.27323 6.63057C0.711421 7.59202 1.04362 8.82041 2.01632 9.37836V9.37836C2.64859 9.73831 3.03809 10.4035 3.03809 11.1235C3.03809 11.8434 2.64859 12.5086 2.01632 12.8685V12.8685C1.04486 13.4227 0.712294 14.6481 1.27323 15.6067V15.6067L1.94788 16.754C2.21143 17.2229 2.65362 17.569 3.1766 17.7155C3.69958 17.8621 4.26023 17.7971 4.73449 17.535V17.535C5.20071 17.2667 5.75629 17.1932 6.27774 17.3308C6.79918 17.4684 7.24328 17.8057 7.51132 18.2677C7.68708 18.5597 7.78152 18.8923 7.78509 19.2319V19.2319C7.78509 20.3447 8.70001 21.2469 9.82861 21.2469H11.1681C12.2929 21.2469 13.2063 20.3506 13.2116 19.2415V19.2415C13.209 18.7063 13.4235 18.1922 13.8073 17.8138C14.1911 17.4353 14.7124 17.2239 15.2552 17.2264C15.5987 17.2355 15.9346 17.3283 16.2329 17.4964V17.4964C17.208 18.0504 18.4537 17.7228 19.0195 16.7637V16.7637L19.7235 15.6067C19.996 15.1455 20.0708 14.5962 19.9313 14.0805C19.7919 13.5647 19.4496 13.1251 18.9804 12.8589V12.8589C18.5112 12.5927 18.169 12.1531 18.0295 11.6373C17.89 11.1216 17.9648 10.5723 18.2373 10.1111C18.4145 9.80604 18.671 9.55309 18.9804 9.37836V9.37836C19.9473 8.82071 20.2787 7.59949 19.7235 6.64021V6.64021V6.63057Z" stroke="white" stroke-width="1.5" stroke-linecap="round" stroke-linejoin="round"/>
    <ellipse opacity="0.4" cx="10.5032" cy="11.1232" rx="2.81594" ry="2.77672" stroke="white" stroke-width="1.5" stroke-linecap="round" stroke-linejoin="round"/>
</svg>
