<svg width="39" height="41" viewBox="0 0 39 41" fill="none" xmlns="http://www.w3.org/2000/svg">
    <path d="M21.3827 0.990234C22.8952 0.990234 24.2646 1.83023 25.0209 3.07023C25.3888 3.67023 25.634 4.41023 25.5727 5.19023C25.5318 5.79023 25.7158 6.39023 26.0428 6.95023C27.0852 8.65023 29.3948 9.29023 31.1935 8.33023C33.217 7.17023 35.7719 7.87023 36.9369 9.85023L38.3063 12.2102C39.4918 14.1902 38.8377 16.7302 36.7938 17.8702C35.0565 18.8902 34.4433 21.1502 35.4857 22.8702C35.8127 23.4102 36.1806 23.8702 36.7529 24.1502C37.4683 24.5302 38.0202 25.1302 38.4085 25.7302C39.1648 26.9702 39.1034 28.4902 38.3676 29.8302L36.9369 32.2302C36.1806 33.5102 34.7703 34.3102 33.3192 34.3102C32.6038 34.3102 31.8067 34.1102 31.1526 33.7102C30.6212 33.3702 30.008 33.2502 29.354 33.2502C27.3305 33.2502 25.634 34.9102 25.5727 36.8902C25.5727 39.1902 23.6923 40.9902 21.3418 40.9902H18.5621C16.1912 40.9902 14.3107 39.1902 14.3107 36.8902C14.2699 34.9102 12.5734 33.2502 10.5499 33.2502C9.87545 33.2502 9.26228 33.3702 8.7513 33.7102C8.09725 34.1102 7.27968 34.3102 6.58475 34.3102C5.11313 34.3102 3.70283 33.5102 2.94658 32.2302L1.53628 29.8302C0.780033 28.5302 0.739155 26.9702 1.4954 25.7302C1.82243 25.1302 2.4356 24.5302 3.13054 24.1502C3.70283 23.8702 4.07074 23.4102 4.4182 22.8702C5.44016 21.1502 4.82698 18.8902 3.08966 17.8702C1.06618 16.7302 0.412129 14.1902 1.57716 12.2102L2.94658 9.85023C4.13205 7.87023 6.66651 7.17023 8.71042 8.33023C10.4886 9.29023 12.7983 8.65023 13.8406 6.95023C14.1677 6.39023 14.3516 5.79023 14.3107 5.19023C14.2699 4.41023 14.4947 3.67023 14.883 3.07023C15.6393 1.83023 17.0087 1.03023 18.5008 0.990234H21.3827ZM19.9724 15.3502C16.7634 15.3502 14.1677 17.8702 14.1677 21.0102C14.1677 24.1502 16.7634 26.6502 19.9724 26.6502C23.1813 26.6502 25.7158 24.1502 25.7158 21.0102C25.7158 17.8702 23.1813 15.3502 19.9724 15.3502Z" fill="#200E32"/>
</svg>
