<svg width="24" height="24" viewBox="0 0 24 24" fill="none" xmlns="http://www.w3.org/2000/svg">
<path d="M9.2047 4.25843C9.79286 4.14834 10.3826 4.44201 10.6392 4.97278C10.7031 5.06909 10.7542 5.17299 10.7913 5.28198C10.9543 7.79818 11.1282 10.2717 11.2912 12.7453C11.2875 13.0024 11.3279 13.2583 11.4107 13.5023C11.6058 13.9823 12.0911 14.2869 12.617 14.2593L20.6044 13.7475L20.6587 13.7688L20.8045 13.7793C21.0933 13.8163 21.3625 13.9481 21.5668 14.1555C21.8053 14.3974 21.936 14.7224 21.9304 15.0589C21.6154 19.6454 18.2528 23.4776 13.6767 24.4649C9.10067 25.4522 4.40963 23.3575 2.16276 19.3237C1.50208 18.1619 1.08458 16.8823 0.934767 15.56C0.876659 15.1682 0.851218 14.7724 0.858696 14.3766C0.873841 9.49951 4.34615 5.28991 9.2047 4.25843ZM13.9537 0.708021C19.4386 0.872217 24.0227 4.85399 24.8535 10.1758C24.8587 10.2076 24.8587 10.24 24.8535 10.2717L24.852 10.422C24.8339 10.6206 24.7524 10.81 24.617 10.9621C24.4477 11.1521 24.2082 11.2682 23.9515 11.2846L14.7361 11.8924L14.5843 11.8954C14.3327 11.8831 14.0915 11.7853 13.9036 11.6161C13.6782 11.4132 13.5503 11.1264 13.5516 10.8262L12.9322 1.77421V1.62494C12.9434 1.37036 13.0575 1.13064 13.2491 0.958627C13.4407 0.786618 13.6942 0.696455 13.9537 0.708021Z" fill="white"/>
</svg>
