<svg width="19" height="20" viewBox="0 0 19 20" fill="none" xmlns="http://www.w3.org/2000/svg">
    <path fill-rule="evenodd" clip-rule="evenodd" d="M18.0799 3.24299C18.4827 3.24299 18.818 3.56598 18.818 3.97698V4.35698C18.818 4.75798 18.4827 5.09098 18.0799 5.09098H0.920731C0.51695 5.09098 0.181641 4.75798 0.181641 4.35698V3.97698C0.181641 3.56598 0.51695 3.24299 0.920731 3.24299H3.93952C4.55275 3.24299 5.08642 2.82199 5.22437 2.22799L5.38246 1.54599C5.62816 0.616997 6.43672 0 7.3621 0H11.6375C12.5529 0 13.3705 0.616997 13.6071 1.49699L13.7763 2.22699C13.9132 2.82199 14.4469 3.24299 15.0611 3.24299H18.0799ZM16.5463 17.1341C16.8614 14.2971 17.4132 7.55712 17.4132 7.48912C17.4334 7.28312 17.3639 7.08812 17.2259 6.93113C17.0779 6.78413 16.8906 6.69713 16.6842 6.69713H2.3233C2.11587 6.69713 1.91851 6.78413 1.78156 6.93113C1.64261 7.08812 1.57414 7.28312 1.58421 7.48912C1.58606 7.50162 1.60586 7.73903 1.63896 8.13595C1.78601 9.8992 2.19558 14.8102 2.46024 17.1341C2.64753 18.8461 3.81054 19.9221 5.49514 19.9611C6.7951 19.9901 8.13432 20.0001 9.50375 20.0001C10.7936 20.0001 12.1037 19.9901 13.4439 19.9611C15.1869 19.9321 16.3489 18.8751 16.5463 17.1341Z" fill="#CF2626"/>
</svg>
