<svg width="17" height="20" viewBox="0 0 17 20" fill="none" xmlns="http://www.w3.org/2000/svg">
    <ellipse opacity="0.4" cx="8.50434" cy="5.48151" rx="4.73102" ry="4.48151" stroke="white" stroke-width="1.5" stroke-linecap="round" stroke-linejoin="round"/>
    <path fill-rule="evenodd" clip-rule="evenodd" d="M1.00002 16.196C0.998745 15.881 1.07313 15.5698 1.21753 15.286C1.6707 14.4275 2.94862 13.9724 4.00902 13.7664C4.77378 13.6118 5.5491 13.5085 6.32921 13.4573C7.77353 13.3371 9.22619 13.3371 10.6705 13.4573C11.4506 13.5091 12.2258 13.6124 12.9907 13.7664C14.0511 13.9724 15.329 14.3845 15.7822 15.286C16.0726 15.8645 16.0726 16.5361 15.7822 17.1146C15.329 18.0161 14.0511 18.4282 12.9907 18.6257C12.2268 18.7867 11.4512 18.8928 10.6705 18.9433C9.49496 19.0377 8.31391 19.0549 7.13584 18.9948C6.86395 18.9948 6.60111 18.9948 6.32921 18.9433C5.55141 18.8935 4.77877 18.7873 4.01808 18.6257C2.94862 18.4282 1.67976 18.0161 1.21753 17.1146C1.07386 16.8276 0.999556 16.5137 1.00002 16.196Z" stroke="white" stroke-width="1.5" stroke-linecap="round" stroke-linejoin="round"/>
</svg>
